<svg width="80" height="80" viewBox="0 0 80 80" fill="none" xmlns="http://www.w3.org/2000/svg">
<path d="M53.2957 27.1287C51.7506 33.4417 54.3169 37.0756 54.3169 37.0756C58.6591 39.524 62.7912 42.3276 66.671 45.4576C69.8739 47.8515 71.041 51.9297 71.041 51.9297" stroke="#222F44" stroke-width="2" stroke-linecap="round" stroke-linejoin="round"/>
<path d="M37.5265 37.9243C37.5204 38.7627 37.2692 39.581 36.8037 40.2784C36.3926 40.9018 26.0544 45.2718 23.6141 46.8434C20.0729 49.1246 16.5716 52.0755 15.6565 54.2904" stroke="#222F44" stroke-width="2" stroke-miterlimit="10" stroke-linecap="round"/>
<path d="M54.3171 37.0955C54.3171 37.0955 52.2681 46.996 40.7694 49.2042C40.7694 49.2042 35.4644 46.4522 35.0134 41.2931" stroke="#222F44" stroke-width="2" stroke-miterlimit="10" stroke-linecap="round"/>
<path d="M55.252 74.2706C56.6644 72.3542 58.1565 62.4868 58.1565 62.4868" stroke="#222F44" stroke-width="2" stroke-linecap="round" stroke-linejoin="round"/>
<path d="M47.8382 34.8077C47.8382 34.8077 44.1645 38.5543 39.0186 37.7984C32.5531 36.8368 30.5703 27.4138 30.1592 23.9257C29.9337 22.0424 29.748 17.752 29.748 17.752" stroke="#222F44" stroke-width="2" stroke-miterlimit="10" stroke-linecap="round"/>
<path d="M40.7362 30.3381C40.2201 30.5095 39.6816 30.6034 39.138 30.6167C38.5547 30.6504 37.9719 30.5411 37.4404 30.2984C37.144 30.1597 36.878 29.9636 36.6579 29.7214C36.5867 29.6471 36.5244 29.5648 36.4722 29.4761C36.4193 29.3839 36.3771 29.286 36.3462 29.1843C36.2984 29.0244 36.2672 28.8599 36.2534 28.6936C36.2246 28.1556 36.2468 27.616 36.3197 27.0822C36.5651 25.0928 36.9828 23.1498 37.2149 21.2068C37.2246 21.0749 37.2863 20.9523 37.3864 20.8658C37.4865 20.7794 37.6168 20.7363 37.7488 20.746C37.8807 20.7556 38.0033 20.8173 38.0897 20.9174C38.1762 21.0175 38.2193 21.1479 38.2096 21.2798C38.1301 23.309 37.7653 25.2984 37.5465 27.248C37.4857 27.6984 37.4657 28.1534 37.4868 28.6074C37.4922 28.6881 37.5055 28.768 37.5266 28.8461C37.525 28.8615 37.525 28.8771 37.5266 28.8925L37.5664 28.9456C37.676 29.0777 37.8114 29.186 37.9643 29.2639C38.7758 29.5807 39.6579 29.6724 40.5173 29.5291C40.6265 29.5115 40.7383 29.5366 40.8295 29.5991C40.9207 29.6617 40.9844 29.7569 41.0074 29.865C41.0304 29.9732 41.011 30.0861 40.9531 30.1803C40.8952 30.2746 40.8033 30.3429 40.6964 30.3713L40.7362 30.3381Z" fill="#222F44"/>
<path d="M60.3449 22.7585C65.2969 26.8677 68.8611 32.4042 70.5515 38.6131C72.2419 44.822 71.9763 51.4012 69.7909 57.4536C67.6054 63.506 63.6065 68.7371 58.3393 72.4337C53.0721 76.1303 46.7931 78.1125 40.3582 78.11" stroke="#222F44" stroke-width="2" stroke-miterlimit="10" stroke-linecap="round"/>
<path d="M9.46307 51.8833C8.38472 45.2513 9.46687 38.4483 12.5498 32.4782C15.6328 26.5081 20.5532 21.6871 26.5851 18.7268" stroke="#222F44" stroke-width="2" stroke-miterlimit="10" stroke-linecap="round"/>
<path d="M33.4748 23.9057C34.1743 23.9057 34.7414 23.3386 34.7414 22.6391C34.7414 21.9396 34.1743 21.3726 33.4748 21.3726C32.7753 21.3726 32.2083 21.9396 32.2083 22.6391C32.2083 23.3386 32.7753 23.9057 33.4748 23.9057Z" fill="#222F44"/>
<path d="M42.7322 23.9057C43.4317 23.9057 43.9987 23.3386 43.9987 22.6391C43.9987 21.9396 43.4317 21.3726 42.7322 21.3726C42.0326 21.3726 41.4656 21.9396 41.4656 22.6391C41.4656 23.3386 42.0326 23.9057 42.7322 23.9057Z" fill="#222F44"/>
<path d="M35.0266 20.0597C34.2508 20.0597 33.4815 20.0597 32.7322 20.0597C32.3542 20.0597 31.9829 20.0597 31.6115 20.0597C31.2401 20.0597 30.8622 20.1062 30.4577 20.1062C30.4066 20.107 30.3559 20.0977 30.3084 20.0788C30.261 20.0599 30.2178 20.0317 30.1814 19.9959C30.145 19.9601 30.116 19.9174 30.0963 19.8703C30.0766 19.8232 30.0664 19.7726 30.0664 19.7215C30.0663 19.6574 30.082 19.5942 30.112 19.5376C30.1421 19.4809 30.1856 19.4325 30.2388 19.3966C30.9991 18.9358 31.8768 18.7055 32.7653 18.7335C33.213 18.7341 33.6587 18.792 34.0916 18.9059C34.5275 19.0095 34.941 19.1915 35.3118 19.443C35.3857 19.4801 35.4441 19.5421 35.4768 19.618C35.5096 19.6939 35.5145 19.7789 35.4907 19.8581C35.467 19.9373 35.4161 20.0056 35.3469 20.051C35.2778 20.0963 35.1949 20.1159 35.1128 20.1062L35.0266 20.0597Z" fill="#222F44"/>
<path d="M45.02 19.7746C44.2442 19.7746 43.4749 19.7746 42.7256 19.7746C42.3476 19.7746 41.9763 19.7746 41.6049 19.7746C41.2336 19.7746 40.8556 19.821 40.4511 19.821C40.4 19.8219 40.3493 19.8126 40.3018 19.7937C40.2544 19.7747 40.2112 19.7465 40.1748 19.7107C40.1384 19.6749 40.1095 19.6322 40.0897 19.5851C40.07 19.538 40.0598 19.4875 40.0598 19.4364C40.0597 19.3722 40.0754 19.3091 40.1055 19.2524C40.1355 19.1957 40.1791 19.1473 40.2322 19.1115C40.9925 18.6507 41.8702 18.4203 42.7588 18.4483C43.2064 18.4489 43.6521 18.5068 44.085 18.6207C44.5209 18.7243 44.9344 18.9063 45.3052 19.1579C45.3791 19.195 45.4375 19.2569 45.4702 19.3328C45.503 19.4088 45.5079 19.4938 45.4841 19.573C45.4604 19.6522 45.4095 19.7204 45.3403 19.7658C45.2712 19.8112 45.1883 19.8307 45.1062 19.821L45.02 19.7746Z" fill="#222F44"/>
<path d="M36.7971 40.8423C36.7971 40.8423 46.4191 42.6394 48.4483 35.0664C48.4483 35.0664 43.9788 39.8144 37.5663 37.6592C37.6704 38.7762 37.3997 39.8961 36.7971 40.8423Z" fill="#222F44"/>
<path d="M2.05562 54.2971H36.8898C37.0226 54.297 37.1524 54.3367 37.2624 54.4112C37.3723 54.4857 37.4574 54.5915 37.5065 54.7149L46.4853 77.195C46.5254 77.2957 46.5402 77.4046 46.5285 77.5123C46.5167 77.62 46.4788 77.7232 46.4179 77.8128C46.3571 77.9024 46.2752 77.9758 46.1794 78.0265C46.0837 78.0772 45.977 78.1036 45.8686 78.1035H11.0278C10.895 78.1036 10.7652 78.0639 10.6552 77.9894C10.5453 77.9149 10.4602 77.8091 10.4111 77.6857L1.43891 55.2056C1.39882 55.105 1.38401 54.996 1.39576 54.8883C1.40751 54.7806 1.44547 54.6774 1.50632 54.5878C1.56717 54.4982 1.64905 54.4248 1.74481 54.3741C1.84056 54.3235 1.94728 54.297 2.05562 54.2971Z" fill="#FFCECC"/>
<path d="M2.05562 54.2971H36.8898C37.0226 54.297 37.1524 54.3367 37.2624 54.4112C37.3723 54.4857 37.4574 54.5915 37.5065 54.7149L46.4853 77.195C46.5254 77.2957 46.5402 77.4046 46.5285 77.5123C46.5167 77.62 46.4788 77.7232 46.4179 77.8128C46.3571 77.9024 46.2752 77.9758 46.1794 78.0265C46.0837 78.0772 45.977 78.1036 45.8686 78.1035H11.0278C10.895 78.1036 10.7652 78.0639 10.6552 77.9894C10.5453 77.9149 10.4602 77.8091 10.4111 77.6857L1.43891 55.2056C1.39882 55.105 1.38401 54.996 1.39576 54.8883C1.40751 54.7806 1.44547 54.6774 1.50632 54.5878C1.56717 54.4982 1.64905 54.4248 1.74481 54.3741C1.84056 54.3235 1.94728 54.297 2.05562 54.2971Z" stroke="#F05432" stroke-width="2" stroke-miterlimit="10"/>
<path d="M22.2614 66.2002L23.5081 64.5556C23.0606 64.1655 22.4779 63.9665 21.8853 64.0012C21.2926 64.0359 20.7372 64.3016 20.3383 64.7413C20.021 65.2425 19.9127 65.8482 20.0366 66.4283C20.1606 67.0085 20.507 67.517 21.0014 67.8447C21.449 68.2348 22.0316 68.4339 22.6242 68.3991C23.2169 68.3644 23.7723 68.0987 24.1712 67.6591C24.3589 67.4107 24.4799 67.1185 24.5227 66.8102L22.2614 66.2002Z" fill="#F05432"/>
<path d="M54.3171 16.4125C55.1607 16.4179 55.9815 16.6868 56.6646 17.1817C57.2216 15.5438 57.7455 13.203 57.1487 11.1406C56.7641 9.81437 54.788 8.56769 54.1248 8.6539C54.1248 8.6539 54.1911 5.06636 51.1208 3.66053C49.1399 2.76941 47.044 2.16005 44.8941 1.85018C41.7773 1.41252 38.1832 1.61146 35.0201 3.49475C31.744 5.16989 29.2113 8.00765 27.9179 11.4523C27.6159 12.5697 27.6262 13.7486 27.9477 14.8605C28.2693 15.9725 28.8897 16.9749 29.7415 17.7587C29.7415 17.7587 29.3702 15.1061 30.1063 14.569C31.7906 13.3356 36.0744 12.4138 43.3689 13.203C43.3689 13.203 47.8715 13.6406 48.3291 16.943C48.5083 18.3095 48.9592 19.6263 49.6553 20.8157C50.3185 18.2162 52.1288 16.4125 54.3171 16.4125Z" fill="#222F44" stroke="#222F44" stroke-width="2" stroke-linecap="round" stroke-linejoin="round"/>
<path d="M54.6684 29.0717C56.6973 29.0717 58.3421 26.6906 58.3421 23.7534C58.3421 20.8161 56.6973 18.4351 54.6684 18.4351C52.6394 18.4351 50.9946 20.8161 50.9946 23.7534C50.9946 26.6906 52.6394 29.0717 54.6684 29.0717Z" fill="#222F44"/>
<path d="M55.7826 26.8368C56.7201 26.8368 57.4802 25.4562 57.4802 23.7532C57.4802 22.0502 56.7201 20.6697 55.7826 20.6697C54.845 20.6697 54.085 22.0502 54.085 23.7532C54.085 25.4562 54.845 26.8368 55.7826 26.8368Z" fill="white"/>
<path d="M41.8435 32.9774C41.8435 32.9774 49.5557 33.5344 52.7056 26.041" stroke="#222F44" stroke-width="2" stroke-miterlimit="10" stroke-linecap="round"/>
<path d="M40.3383 34.3102C41.5322 34.3102 42.5001 33.7164 42.5001 32.984C42.5001 32.2515 41.5322 31.6577 40.3383 31.6577C39.1444 31.6577 38.1765 32.2515 38.1765 32.984C38.1765 33.7164 39.1444 34.3102 40.3383 34.3102Z" fill="#222F44"/>
</svg>
