<svg width="80" height="80" viewBox="0 0 80 80" fill="none" xmlns="http://www.w3.org/2000/svg">
<path d="M51.4854 22.5466C52.6458 17.9445 56.6246 18.3092 56.8302 21.6381C57.1087 26.0745 52.7055 27.1355 52.7055 27.1355C51.1604 33.4618 53.7135 37.1355 53.7135 37.1355C58.0618 39.5766 62.2006 42.3735 66.0875 45.4976C69.2904 47.8915 70.4575 51.9697 70.4575 51.9697" stroke="#222F44" stroke-width="2" stroke-linecap="round" stroke-linejoin="round"/>
<path d="M47.2 14.8001C45.0099 13.6659 49.6491 15.091 47.2 14.8001C51.1257 16.9022 51.4852 22.5465 51.4852 22.5465C51.5954 21.9244 51.828 21.3303 52.1695 20.7987C52.511 20.2671 52.9546 19.8086 53.4746 19.4497C49.7325 16.1313 52.115 16.4609 47.2 14.8001Z" fill="#222F44"/>
<path d="M47.2 14.8001C49.6491 15.091 45.0099 13.6659 47.2 14.8001ZM47.2 14.8001C51.1257 16.9022 51.4852 22.5465 51.4852 22.5465C51.5954 21.9244 51.828 21.3303 52.1695 20.7987C52.511 20.2671 52.9546 19.8086 53.4746 19.4497C49.7325 16.1313 52.115 16.4609 47.2 14.8001Z" stroke="#222F44" stroke-width="2" stroke-linecap="round" stroke-linejoin="round"/>
<path d="M23.0303 44.914C25.517 43.422 35.8022 40.9352 36.2199 40.2721C36.6854 39.5747 36.9366 38.7564 36.9427 37.918" stroke="#222F44" stroke-width="2" stroke-miterlimit="10" stroke-linecap="round"/>
<path d="M53.7135 37.1353C53.7135 37.1353 51.6777 47.0093 40.1857 49.2241C40.1857 49.2241 34.8806 46.2002 34.4297 41.0411" stroke="#222F44" stroke-width="2" stroke-miterlimit="10" stroke-linecap="round"/>
<path d="M54.6682 74.2706C56.0807 72.3542 57.5727 62.4868 57.5727 62.4868" stroke="#222F44" stroke-width="2" stroke-linecap="round" stroke-linejoin="round"/>
<path d="M20.9415 68.654C20.9415 68.654 19.8208 67.0492 18.1763 64.2441" stroke="#222F44" stroke-width="2" stroke-miterlimit="10" stroke-linecap="round"/>
<path d="M47.3605 34.6753C47.3605 34.6753 45.2716 38.7204 38.4613 37.7986C31.9825 36.9365 30.3777 27.6129 29.9666 24.1249C29.7411 22.2416 29.5999 15.2002 29.5999 15.2002" stroke="#222F44" stroke-width="2" stroke-miterlimit="10" stroke-linecap="round"/>
<path d="M40.1524 30.3582C39.6364 30.5295 39.0978 30.6234 38.5543 30.6367C37.9709 30.6704 37.3882 30.5611 36.8567 30.3184C36.5602 30.1797 36.2943 29.9836 36.0742 29.7415C36.003 29.6671 35.9407 29.5848 35.8885 29.4961C35.8356 29.4039 35.7933 29.306 35.7625 29.2043C35.7146 29.0444 35.6835 28.8799 35.6697 28.7136C35.6409 28.1756 35.6631 27.636 35.736 27.1022C35.9813 25.1128 36.3991 23.1698 36.6312 21.2269C36.6409 21.095 36.7025 20.9723 36.8027 20.8859C36.9028 20.7994 37.0331 20.7563 37.165 20.766C37.2969 20.7757 37.4196 20.8373 37.506 20.9374C37.5924 21.0376 37.6356 21.1679 37.6259 21.2998C37.5463 23.329 37.1816 25.3184 36.9628 27.268C36.9019 27.7184 36.882 28.1734 36.9031 28.6274C36.9084 28.7081 36.9218 28.788 36.9429 28.8661C36.9412 28.8815 36.9412 28.8971 36.9429 28.9125L36.9827 28.9656C37.0922 29.0977 37.2276 29.206 37.3805 29.2839C38.1921 29.6008 39.0742 29.6924 39.9336 29.5491C40.0428 29.5316 40.1545 29.5566 40.2458 29.6192C40.337 29.6817 40.4007 29.7769 40.4237 29.8851C40.4467 29.9932 40.4272 30.1061 40.3693 30.2004C40.3114 30.2946 40.2195 30.363 40.1126 30.3913L40.1524 30.3582Z" fill="#222F44"/>
<path d="M54.9468 19.1314C54.9468 19.1314 55.5502 13.5279 55.3314 11.5386C55.1126 9.54916 51.8964 3.31574 43.6139 1.91654C38.972 1.14067 34.2257 3.1688 32.8 4.8001C32.429 5.42636 31.4149 7.70468 31.2 8.40009" stroke="#222F44" stroke-width="2" stroke-miterlimit="10" stroke-linecap="round"/>
<path d="M29.3092 18.4002C29.3092 18.4002 28.7999 16.0002 31.0873 14.7681C33.9999 12.8002 45.1999 10.4002 53.4746 19.4564C53.4746 19.4564 51.1999 14.7681 45.1999 11.2002C39.6885 7.92285 31.6 7.20021 25.9999 10.0002C22.7999 11.6002 24.3999 14.0002 25.9999 15.6002C27.5999 17.2002 29.3092 18.4002 29.3092 18.4002Z" fill="#222F44" stroke="#222F44" stroke-width="2" stroke-linecap="round" stroke-linejoin="round"/>
<path d="M50.8 7.6001C50.8 7.6001 50.8 11.6001 49.9668 16.7905" stroke="#222F44" stroke-miterlimit="10" stroke-linecap="round"/>
<path d="M41.2399 78.0837C41.2399 78.0837 25.9879 63.3755 23.9985 55.4444C23.4746 53.3622 24.2438 50.6301 22.9773 48.15C21.651 45.4577 18.0635 42.845 18.0635 42.845" stroke="#222F44" stroke-width="2" stroke-miterlimit="10" stroke-linecap="round"/>
<path d="M7.6524 41.711L5.96805 32.8118C5.94886 32.7123 5.9514 32.6098 5.97549 32.5114C5.99959 32.413 6.04467 32.321 6.10765 32.2416C6.17063 32.1623 6.25002 32.0975 6.34038 32.0517C6.43075 32.0059 6.52994 31.9801 6.63118 31.9762L15.106 31.638C15.2719 31.6313 15.4349 31.6836 15.566 31.7855C15.6971 31.8875 15.7878 32.0326 15.8222 32.1951L18.7665 46.333C18.7665 46.333 16.7306 47.7455 13.2625 42.6526C12.7349 41.8929 12.2607 41.0974 11.8434 40.272C11.1073 38.9457 10.3381 37.7322 9.19086 38.8396C8.68025 39.3436 9.24391 41.3993 9.24391 41.3993C9.24391 41.3993 8.44815 40.4311 7.63914 41.7043" fill="#FFCECC"/>
<path d="M7.6524 41.711L5.96805 32.8118C5.94886 32.7123 5.9514 32.6098 5.97549 32.5114C5.99959 32.413 6.04467 32.321 6.10765 32.2416C6.17063 32.1623 6.25002 32.0975 6.34038 32.0517C6.43075 32.0059 6.52994 31.9801 6.63118 31.9762L15.106 31.638C15.2719 31.6313 15.4349 31.6836 15.566 31.7855C15.6971 31.8875 15.7878 32.0326 15.8222 32.1951L18.7665 46.333" stroke="#F05432" stroke-width="2" stroke-miterlimit="10"/>
<path d="M8.55781 35.207C8.9596 35.1776 9.25711 34.7688 9.22232 34.2939C9.18753 33.8191 8.83362 33.458 8.43184 33.4875C8.03006 33.5169 7.73255 33.9257 7.76733 34.4005C7.80212 34.8754 8.15603 35.2364 8.55781 35.207Z" fill="#F05432"/>
<path d="M14.708 59.7945C14.708 59.7945 9.99977 57.2348 8.10985 53.5147C6.33266 50.02 6.67749 49.4033 7.30746 48.8396" stroke="#222F44" stroke-width="2" stroke-miterlimit="10" stroke-linecap="round"/>
<path d="M10.5635 48.8728C9.46069 47.401 8.56796 45.7829 7.91097 44.0651C6.74386 40.4909 9.27038 41.4126 9.27038 41.4126" stroke="#222F44" stroke-width="2" stroke-miterlimit="10" stroke-linecap="round"/>
<path d="M9.48272 51.7241C8.52448 50.3255 7.74897 48.8101 7.17502 47.2149C6.00791 43.6406 7.90447 44.0517 7.90447 44.0517" stroke="#222F44" stroke-width="2" stroke-miterlimit="10" stroke-linecap="round"/>
<path d="M12.0756 46.5652C11.1499 45.2452 10.3527 43.8396 9.69498 42.3676C8.87933 40.04 8.77986 38.7867 9.69498 38.3888C10.6101 37.9909 11.313 39.2774 12.6857 41.7044C14.0584 44.1315 17.1751 47.9644 19.4695 46.2668" stroke="#222F44" stroke-width="2" stroke-miterlimit="10" stroke-linecap="round"/>
<path d="M15.011 60.9341L16.0352 62.7089C16.6503 63.7747 18.0129 64.14 19.0787 63.525L19.0845 63.5216C20.1503 62.9065 20.5156 61.5439 19.9005 60.4781L18.8763 58.7034C18.2612 57.6376 16.8986 57.2722 15.8328 57.8873L15.8271 57.8906C14.7613 58.5057 14.3959 59.8683 15.011 60.9341Z" stroke="#222F44" stroke-width="2" stroke-miterlimit="10" stroke-linecap="round"/>
<path d="M18.939 58.1301L23.992 55.4775C24.1872 56.5273 24.5642 57.5349 25.1061 58.455L20.4642 61.5717" stroke="#222F44" stroke-width="2" stroke-linecap="round" stroke-linejoin="round"/>
<path d="M14.2505 28.6605C16.6175 25.37 19.5989 22.5687 23.0303 20.4111" stroke="#222F44" stroke-width="2" stroke-miterlimit="10" stroke-linecap="round"/>
<path d="M59.5026 22.772C63.0988 25.7358 65.9866 29.4664 67.9544 33.6907C69.9222 37.915 70.9202 42.526 70.8754 47.1859C70.8305 51.8458 69.7439 56.4367 67.6951 60.6224C65.6463 64.808 62.6872 68.4823 59.0346 71.3763C55.382 74.2703 51.1282 76.3107 46.585 77.3479C42.0417 78.3852 37.324 78.3931 32.7773 77.371C28.2306 76.349 23.9701 74.3229 20.3078 71.4412C16.6455 68.5594 13.6741 64.895 11.6113 60.7163" stroke="#222F44" stroke-width="2" stroke-miterlimit="10" stroke-linecap="round"/>
<path d="M36.4722 39.7879C36.4722 39.7879 44.6088 42.2548 47.9178 34.9404C47.9178 34.9404 43.4483 39.6884 37.0358 37.5333C37.069 37.5598 37.4934 38.3357 36.4722 39.7879Z" fill="#222F44"/>
<path d="M40.0464 32.7454C40.3647 32.6592 40.7095 32.5531 41.061 32.447C41.3909 32.3402 41.7142 32.214 42.0292 32.069C42.3376 31.9303 42.6328 31.7638 42.9111 31.5716C43.1939 31.3698 43.462 31.1482 43.7135 30.9085L43.7599 30.8687C43.8375 30.8179 43.929 30.7927 44.0217 30.7965C44.1143 30.8004 44.2034 30.8331 44.2765 30.8901C44.3496 30.9471 44.4031 31.0256 44.4294 31.1145C44.4556 31.2034 44.4534 31.2983 44.4231 31.3859C44.2578 31.7993 44.0121 32.1757 43.7003 32.4934C43.3802 32.8081 43.0105 33.0679 42.6061 33.2626C42.2112 33.4543 41.7916 33.5904 41.3594 33.6671C40.9203 33.74 40.4722 33.74 40.0332 33.6671C39.9235 33.6527 39.8222 33.6006 39.7467 33.5199C39.6711 33.4391 39.6259 33.3345 39.6189 33.2241C39.6118 33.1137 39.6433 33.0043 39.708 32.9146C39.7727 32.8248 39.8665 32.7603 39.9735 32.7321L40.0464 32.7454Z" fill="#222F44"/>
<path d="M32.8579 23.9191C33.5574 23.9191 34.1245 23.3521 34.1245 22.6526C34.1245 21.9531 33.5574 21.386 32.8579 21.386C32.1584 21.386 31.5913 21.9531 31.5913 22.6526C31.5913 23.3521 32.1584 23.9191 32.8579 23.9191Z" fill="#222F44"/>
<path d="M42.1218 23.9191C42.8213 23.9191 43.3884 23.3521 43.3884 22.6526C43.3884 21.9531 42.8213 21.386 42.1218 21.386C41.4223 21.386 40.8552 21.9531 40.8552 22.6526C40.8552 23.3521 41.4223 23.9191 42.1218 23.9191Z" fill="#222F44"/>
<path d="M34.4165 20.0729C33.6406 20.0729 32.8714 20.0729 32.1221 20.0729C31.7441 20.0729 31.3727 20.0729 31.0014 20.0729C30.63 20.0729 30.2521 20.1193 29.8475 20.1193C29.7965 20.1202 29.7458 20.1109 29.6983 20.092C29.6509 20.0731 29.6077 20.0449 29.5713 20.0091C29.5349 19.9733 29.5059 19.9306 29.4862 19.8835C29.4665 19.8364 29.4563 19.7858 29.4563 19.7347C29.4562 19.6706 29.4719 19.6074 29.5019 19.5507C29.532 19.4941 29.5755 19.4457 29.6287 19.4098C30.389 18.949 31.2667 18.7187 32.1552 18.7467C32.6029 18.7472 33.0486 18.8052 33.4815 18.9191C33.9174 19.0226 34.3309 19.2046 34.7017 19.4562C34.7755 19.4933 34.834 19.5553 34.8667 19.6312C34.8994 19.7071 34.9044 19.7921 34.8806 19.8713C34.8569 19.9505 34.8059 20.0188 34.7368 20.0641C34.6677 20.1095 34.5848 20.129 34.5027 20.1193L34.4165 20.0729Z" fill="#222F44"/>
<path d="M44.4297 19.7878C43.6538 19.7878 42.8846 19.7878 42.1353 19.7878C41.7573 19.7878 41.3859 19.7878 41.0146 19.7878C40.6432 19.7878 40.2652 19.8342 39.8607 19.8342C39.8097 19.8351 39.7589 19.8258 39.7115 19.8068C39.6641 19.7879 39.6209 19.7597 39.5845 19.7239C39.548 19.6881 39.5191 19.6454 39.4994 19.5983C39.4796 19.5512 39.4695 19.5006 39.4695 19.4496C39.4694 19.3854 39.4851 19.3222 39.5151 19.2656C39.5452 19.2089 39.5887 19.1605 39.6419 19.1246C40.4022 18.6639 41.2798 18.4335 42.1684 18.4615C42.6161 18.4621 43.0618 18.52 43.4947 18.6339C43.9306 18.7375 44.3441 18.9195 44.7148 19.1711C44.7887 19.2081 44.8472 19.2701 44.8799 19.346C44.9126 19.4219 44.9175 19.507 44.8938 19.5862C44.87 19.6653 44.8191 19.7336 44.75 19.779C44.6809 19.8243 44.598 19.8439 44.5159 19.8342L44.4297 19.7878Z" fill="#222F44"/>
</svg>
